<?xml version="1.0" encoding="UTF-8"?>
<!DOCTYPE svg PUBLIC "-//W3C//DTD SVG 1.1//EN" "http://www.w3.org/Graphics/SVG/1.1/DTD/svg11.dtd">
<!-- Creator: CorelDRAW X5 -->
<svg xmlns="http://www.w3.org/2000/svg" xml:space="preserve" width="13.2292mm" height="13.2292mm" style="shape-rendering:geometricPrecision; text-rendering:geometricPrecision; image-rendering:optimizeQuality; fill-rule:evenodd; clip-rule:evenodd"
viewBox="0 0 1323 1323"
 xmlns:xlink="http://www.w3.org/1999/xlink">
 <defs>
  <style type="text/css">
   <![CDATA[
    .fil2 {fill:#FEFEFE;fill-rule:nonzero}
    .fil4 {fill:#FEFEFE;fill-rule:nonzero}
    .fil0 {fill:#007AA5;fill-rule:nonzero}
    .fil3 {fill:#8882AF;fill-rule:nonzero}
    .fil1 {fill:#E05E3C;fill-rule:nonzero}
   ]]>
  </style>
 </defs>
 <g id="Слой_x0020_1">
  <metadata id="CorelCorpID_0Corel-Layer"/>
  <path class="fil0" d="M659 55c-334,0 -605,271 -605,605 0,334 271,605 605,605 334,0 605,-271 605,-605 0,-334 -271,-605 -605,-605zm0 1076c-260,0 -471,-211 -471,-471 0,-260 211,-471 471,-471 260,0 471,211 471,471 0,260 -211,471 -471,471z"/>
  <g>
   <path class="fil1" d="M659 1304l0 -17 0 0 32 -1 32 -2 31 -4 31 -5 30 -7 30 -8 29 -10 28 -11 28 -13 27 -14 26 -15 25 -16 25 -17 24 -19 23 -20 22 -21 21 -22 20 -23 19 -24 17 -25 16 -25 15 -26 14 -27 13 -28 11 -28 10 -29 8 -30 7 -30 6 -31 4 -31 2 -32 1 -32 17 0 -1 33 -2 33 -4 32 -6 32 -7 31 -9 31 -10 30 -12 29 -13 28 -14 28 -15 27 -17 26 -18 25 -19 24 -20 23 -21 22 -22 21 -23 20 -24 19 -25 18 -26 17 -27 15 -28 14 -28 13 -29 12 -30 10 -30 9 -31 7 -32 6 -32 4 -33 2 -33 1 0 0zm-643 -643l17 0 0 0 1 32 2 32 4 31 5 31 7 30 8 30 10 29 11 28 13 28 14 27 15 26 16 25 17 25 19 24 20 23 21 22 22 21 23 20 24 19 25 17 25 16 26 15 27 14 28 13 28 11 29 10 30 8 30 7 31 5 31 4 32 2 32 1 0 17 -33 -1 -33 -2 -32 -4 -32 -6 -31 -7 -31 -9 -30 -10 -29 -12 -28 -13 -28 -14 -27 -15 -26 -17 -25 -18 -24 -19 -23 -20 -22 -21 -21 -22 -20 -23 -19 -24 -18 -25 -17 -26 -15 -27 -14 -28 -13 -28 -12 -29 -10 -30 -9 -31 -7 -31 -6 -32 -4 -32 -2 -33 -1 -33 0 0zm643 -643l0 17 0 0 -32 1 -32 2 -31 4 -31 5 -30 7 -30 8 -29 10 -28 11 -28 13 -27 14 -26 15 -25 16 -25 17 -24 19 -23 20 -22 21 -21 22 -20 23 -19 24 -17 25 -16 25 -15 26 -14 27 -13 28 -11 28 -10 29 -8 30 -7 30 -5 31 -4 31 -2 32 -1 32 -17 0 1 -33 2 -33 4 -32 6 -32 7 -31 9 -30 10 -30 12 -29 13 -28 14 -28 15 -27 17 -26 18 -25 19 -24 20 -23 21 -22 22 -21 23 -20 24 -19 25 -18 26 -17 27 -15 28 -14 28 -13 29 -12 30 -10 31 -9 31 -7 32 -6 32 -4 33 -2 33 -1 0 0zm643 643l-17 0 0 0 -1 -32 -2 -32 -4 -31 -6 -31 -7 -30 -8 -30 -10 -29 -11 -28 -13 -28 -14 -27 -15 -26 -16 -25 -17 -25 -19 -24 -20 -23 -21 -22 -22 -21 -23 -20 -24 -19 -25 -17 -25 -16 -26 -15 -27 -14 -28 -13 -28 -11 -29 -10 -30 -8 -30 -7 -31 -5 -31 -4 -32 -2 -32 -1 0 -17 33 1 33 2 32 4 32 6 31 7 30 9 30 10 29 12 28 13 28 14 27 15 26 17 25 18 24 19 23 20 22 21 21 22 20 23 19 24 18 25 17 26 15 27 14 28 13 28 12 29 10 30 9 31 7 31 6 32 4 32 2 33 1 33 0 0z"/>
  </g>
  <g>
   <path class="fil1" d="M659 1144l0 -23 0 0 24 -1 23 -2 23 -3 23 -4 22 -5 22 -6 21 -7 21 -8 20 -9 20 -10 19 -11 19 -12 18 -13 17 -14 17 -15 16 -15 15 -16 15 -17 14 -17 13 -18 12 -19 11 -19 10 -20 9 -20 8 -21 7 -21 6 -22 5 -22 4 -23 3 -23 2 -23 1 -24 23 0 -1 25 -2 25 -3 24 -4 24 -5 23 -7 23 -8 22 -9 22 -10 21 -11 21 -12 20 -13 20 -13 19 -14 18 -15 18 -16 17 -17 16 -18 15 -18 14 -19 14 -20 13 -20 12 -21 11 -21 10 -22 9 -22 8 -23 7 -23 5 -24 4 -24 3 -25 2 -25 1 0 0zm-484 -484l23 0 0 0 1 24 2 23 3 23 4 23 5 22 6 22 7 21 8 21 9 20 10 20 11 19 12 19 13 18 14 17 15 17 15 16 16 15 17 15 17 14 18 13 19 12 19 11 20 10 20 9 21 8 21 7 22 6 22 5 23 4 23 3 23 2 24 1 0 23 -25 -1 -25 -2 -24 -3 -24 -4 -23 -5 -23 -7 -22 -8 -22 -9 -21 -10 -21 -11 -20 -12 -20 -13 -19 -13 -18 -14 -18 -15 -17 -16 -16 -17 -15 -18 -14 -18 -13 -19 -13 -20 -12 -20 -11 -21 -10 -21 -9 -22 -8 -22 -7 -23 -5 -23 -4 -24 -3 -24 -2 -25 -1 -25 0 0zm484 -484l0 23 0 0 -24 1 -23 2 -23 3 -23 4 -22 5 -22 6 -21 7 -21 8 -20 9 -20 10 -19 11 -19 12 -18 13 -17 14 -17 15 -16 15 -15 16 -15 17 -14 17 -13 18 -12 19 -11 19 -10 20 -9 20 -8 21 -7 21 -6 22 -5 22 -4 23 -3 23 -2 23 -1 24 -23 0 1 -25 2 -25 3 -24 4 -24 5 -23 7 -23 8 -22 9 -22 10 -21 11 -21 12 -20 13 -20 13 -19 14 -18 15 -18 16 -17 17 -16 18 -15 18 -14 19 -13 20 -13 20 -12 21 -11 21 -10 22 -9 22 -8 23 -7 23 -5 24 -4 24 -3 25 -2 25 -1 0 0zm484 484l-23 0 0 0 -1 -24 -2 -23 -3 -23 -4 -23 -5 -22 -6 -22 -7 -21 -8 -21 -9 -20 -10 -20 -11 -19 -12 -19 -13 -18 -14 -17 -15 -17 -15 -16 -16 -15 -17 -15 -17 -14 -18 -13 -19 -12 -19 -11 -20 -10 -20 -9 -21 -8 -21 -7 -22 -6 -22 -5 -23 -4 -23 -3 -23 -2 -24 -1 0 -23 25 1 25 2 24 3 24 4 23 5 23 7 22 8 22 9 21 10 21 11 20 12 20 13 19 13 18 14 18 15 17 16 16 17 15 18 14 18 13 19 13 20 12 20 11 21 10 21 9 22 8 22 7 23 5 23 4 24 3 24 2 25 1 25 0 0z"/>
  </g>
  <path class="fil1" d="M220 671l878 8c-1,29 -5,58 -11,85l-105 -44 -65 15 -120 53 -95 35 -103 -10 -108 -53 -93 -30 -80 3 -60 38 -24 8c-9,-34 -14,-70 -15,-107z"/>
  <path class="fil1" d="M220 678l136 0 0 -193 -98 0c-25,55 -38,116 -38,180 0,4 0,9 0,13z"/>
  <polygon class="fil1" points="433,657 454,657 501,294 510,294 558,657 578,657 522,272 491,272 "/>
  <polygon class="fil1" points="400,359 611,359 611,345 400,345 "/>
  <polygon class="fil1" points="400,398 611,398 611,384 400,384 "/>
  <g>
   <path class="fil1" d="M531 449l-53 -50 6 -6 53 50 0 6 -6 0zm6 -6l3 3 -3 3 0 -6zm-72 58l67 -58 6 6 -67 58 -5 0 -1 -7zm1 7l-5 -3 4 -4 1 7zm78 45l-78 -45 4 -7 78 45 -4 7z"/>
  </g>
  <path class="fil1" d="M220 661l763 -291c71,78 115,182 115,296 0,8 0,15 -1,23l-877 -7c0,-5 0,-10 0,-15 0,-2 0,-3 0,-5z"/>
  <path class="fil2" d="M841 450l113 -43c0,0 0,255 -273,254l-95 0c0,0 235,-51 255,-211z"/>
  <path class="fil2" d="M701 498l121 -47c0,0 7,141 -304,215l-84 0c133,-35 194,-60 267,-168z"/>
  <path class="fil2" d="M523 564l136 -52c0,0 -53,119 -316,154l-84 0c68,-20 264,-102 264,-102z"/>
  <path class="fil0" d="M229 755c42,-21 80,-44 139,-47 146,3 146,88 291,90 145,2 186,-94 309,-94 56,0 89,20 123,41 -3,14 -6,28 -10,41 -30,-19 -62,-35 -113,-35 -83,0 -130,44 -196,71l-221 0c-53,-27 -87,-65 -183,-67 -54,3 -91,22 -128,41 -4,-14 -8,-27 -11,-41z"/>
  <path class="fil0" d="M285 823c24,-10 50,-18 83,-20 43,1 73,9 99,20l-182 0 0 0z"/>
  <path class="fil0" d="M867 823c29,-13 61,-24 100,-24 40,0 68,10 93,24l-193 0 0 0z"/>
  <path class="fil0" d="M254 837c10,-5 23,-11 34,-16l175 0c59,26 93,71 196,72 98,1 152,-43 212,-72l185 -1c2,1 9,5 11,6 -5,13 -11,26 -17,38 -22,-11 -48,-18 -82,-18 -83,0 -137,46 -202,74l-212 -2c-53,-26 -89,-66 -186,-68 -38,2 -68,12 -95,25 -7,-12 -13,-25 -18,-38z"/>
  <path class="fil0" d="M296 913c21,-8 44,-14 72,-15 43,1 73,9 99,20l-168 0c-1,-1 -2,-3 -3,-4z"/>
  <path class="fil0" d="M867 917c29,-13 61,-24 100,-24 23,0 43,4 60,9 -3,5 -6,10 -10,14l-151 0 0 0z"/>
  <path class="fil0" d="M547 821c27,13 64,25 112,25 46,0 85,-11 116,-24l-222 -2 -6 2z"/>
  <path class="fil0" d="M296 913l165 2c62,23 96,72 199,73 98,1 154,-44 213,-72l149 -3c-6,9 -16,23 -23,31 -10,-1 -20,-2 -31,-2 -83,0 -119,58 -185,85l-242 3c-53,-26 -77,-82 -174,-84 -16,1 -30,3 -43,6 -9,-11 -21,-27 -29,-38z"/>
  <path class="fil0" d="M551 917c27,13 59,23 108,23 46,0 82,-9 113,-23l-221 0 0 0z"/>
  <path class="fil0" d="M551 1012c27,13 59,23 108,23 46,0 82,-9 113,-23l-221 0 0 0z"/>
  <path class="fil0" d="M315 939c23,-6 105,-22 202,25 115,57 163,63 227,35 63,-28 77,-65 168,-65 75,0 72,-30 107,-18 -79,114 -211,189 -361,189 -139,0 -263,-65 -343,-165z"/>
  <polygon class="fil2" points="295,575 363,575 363,555 295,555 "/>
  <polygon class="fil2" points="295,538 363,538 363,518 295,518 "/>
  <g>
   <path class="fil3" d="M659 1302l0 -17 0 0 32 -1 32 -2 31 -4 31 -5 30 -7 30 -8 29 -10 28 -11 28 -13 27 -14 26 -15 25 -16 25 -17 24 -19 23 -20 22 -21 21 -22 20 -23 19 -24 17 -25 16 -25 15 -26 14 -27 13 -28 11 -28 10 -29 8 -30 7 -30 5 -31 4 -31 2 -32 1 -32 17 0 -1 33 -2 33 -4 32 -6 32 -7 31 -9 30 -10 30 -12 29 -13 28 -14 28 -15 27 -17 26 -18 25 -19 24 -20 23 -21 22 -22 21 -23 20 -24 19 -25 18 -26 17 -27 15 -28 14 -28 13 -29 12 -30 10 -31 9 -31 7 -32 6 -32 4 -33 2 -33 1 0 0zm-643 -643l17 0 0 0 1 32 2 32 4 31 6 31 7 30 8 30 10 29 11 28 13 28 14 27 15 26 16 25 17 25 19 24 20 23 21 22 22 21 23 20 24 19 25 17 25 16 26 15 27 14 28 13 28 11 29 10 30 8 30 7 31 5 31 4 32 2 32 1 0 17 -33 -1 -33 -2 -32 -4 -32 -6 -31 -7 -30 -9 -30 -10 -29 -12 -28 -13 -28 -14 -27 -15 -26 -17 -25 -18 -24 -19 -23 -20 -22 -21 -21 -22 -20 -23 -19 -24 -18 -25 -17 -26 -15 -27 -14 -28 -13 -28 -12 -29 -10 -30 -9 -31 -7 -31 -6 -32 -4 -32 -2 -33 -1 -33 0 0zm643 -643l0 17 0 0 -32 1 -32 2 -31 4 -31 5 -30 7 -30 8 -29 10 -28 11 -28 13 -27 14 -26 15 -25 16 -25 17 -24 19 -23 20 -22 21 -21 22 -20 23 -19 24 -17 25 -16 25 -15 26 -14 27 -13 28 -11 28 -10 29 -8 30 -7 30 -6 31 -4 31 -2 32 -1 32 -17 0 1 -33 2 -33 4 -32 6 -32 7 -31 9 -31 10 -30 12 -29 13 -28 14 -28 15 -27 17 -26 18 -25 19 -24 20 -23 21 -22 22 -21 23 -20 24 -19 25 -18 26 -17 27 -15 28 -14 28 -13 29 -12 30 -10 30 -9 31 -7 32 -6 32 -4 33 -2 33 -1 0 0zm643 643l-17 0 0 0 -1 -32 -2 -32 -4 -31 -5 -31 -7 -30 -8 -30 -10 -29 -11 -28 -13 -28 -14 -27 -15 -26 -16 -25 -17 -25 -19 -24 -20 -23 -21 -22 -22 -21 -23 -20 -24 -19 -25 -17 -25 -16 -26 -15 -27 -14 -28 -13 -28 -11 -29 -10 -30 -8 -30 -7 -31 -5 -31 -4 -32 -2 -32 -1 0 -17 33 1 33 2 32 4 32 6 31 7 31 9 30 10 29 12 28 13 28 14 27 15 26 17 25 18 24 19 23 20 22 21 21 22 20 23 19 24 18 25 17 26 15 27 14 28 13 28 12 29 10 30 9 31 7 31 6 32 4 32 2 33 1 33 0 0z"/>
  </g>
  <path class="fil4" d="M115 816m2 6l61 -20 6 19 -38 25 45 -3 6 19 -61 20 -4 -11 48 -16 -52 4 -4 -12 44 -28 -48 16 -4 -11zm33 85m30 -12c6,-3 11,-5 16,-5 4,0 7,0 11,1 4,1 7,2 9,4 3,3 6,6 9,11 5,8 6,16 3,24 -2,8 -8,14 -17,19 -9,5 -18,7 -25,4 -8,-2 -14,-7 -19,-16 -5,-8 -6,-16 -3,-24 2,-8 8,-14 17,-19zm7 12c-6,4 -10,8 -12,12 -2,5 -1,9 1,14 3,5 6,7 11,8 5,1 11,0 17,-4 6,-4 10,-8 12,-12 2,-5 1,-9 -1,-14 -3,-5 -6,-8 -11,-9 -5,-1 -10,0 -17,4zm10 80m48 23l5 12c-7,3 -13,3 -18,2 -5,-1 -10,-5 -15,-10 -5,-7 -7,-14 -6,-22 1,-8 6,-15 14,-21 8,-7 17,-10 25,-9 8,1 15,5 20,12 5,6 7,13 6,19 0,4 -2,8 -5,13l-10 -8c2,-3 3,-6 3,-9 0,-3 -1,-6 -3,-9 -3,-4 -7,-6 -11,-6 -5,0 -10,2 -16,7 -6,5 -10,10 -11,14 -1,4 0,9 3,12 2,3 5,4 8,5 3,1 7,0 11,-2zm6 43m25 -20c5,-5 9,-8 14,-10 3,-1 7,-2 10,-2 4,0 7,0 10,2 4,2 8,4 12,8 7,7 10,14 10,22 0,8 -4,16 -11,24 -7,7 -15,11 -23,12 -8,0 -16,-3 -22,-9 -7,-7 -10,-14 -10,-22 0,-8 4,-16 11,-23zm10 9c-5,5 -8,10 -8,15 0,5 2,9 5,13 4,4 8,5 13,5 5,0 10,-3 15,-9 5,-5 8,-10 8,-15 0,-5 -2,-9 -6,-13 -4,-4 -8,-5 -13,-5 -5,0 -10,3 -15,9zm34 73m41 -50l40 26 -6 9 -30 -19 -8 13 15 9c4,3 7,5 9,8 2,3 3,6 3,10 0,4 -1,8 -3,11 -2,4 -5,6 -9,8 -4,1 -7,2 -10,1 -3,-1 -7,-2 -11,-5l-26 -17 35 -54zm-18 52l11 7c3,2 6,4 7,4 2,1 3,1 5,0 2,-1 3,-2 4,-3 2,-3 2,-5 1,-7 -1,-2 -4,-5 -8,-8l-11 -7 -9 14zm50 43m37 -54l41 19 -27 58 -12 -6 23 -49 -18 -8 -12 25c-3,7 -6,12 -8,15 -2,3 -4,4 -7,5 -3,1 -6,0 -10,-2 -1,-1 -4,-2 -7,-4l4 -9 3 1c2,1 4,2 5,1 1,0 2,-2 4,-4l5 -10 16 -33zm41 88m26 -60l42 13 -3 10 -29 -9 -16 51 -12 -4 19 -62zm45 80m16 -63l12 2 -6 42 32 -39 13 2 -9 64 -12 -2 6 -42 -32 38 -13 -2 9 -64zm71 75m9 -65l45 -2 2 54 6 0 1 25 -11 0 0 -14 -41 1 0 14 -11 0 -1 -25 5 0c2,-6 4,-12 5,-19 1,-7 1,-17 0,-28l0 -7zm13 10c1,20 -1,34 -4,43l24 -1 -1 -43 -19 1zm64 52m7 -1l-9 -64 21 -3c8,-1 13,-1 15,-1 4,0 7,2 10,5 3,3 5,7 5,12 1,4 0,7 -1,10 -1,3 -3,5 -5,7 -2,2 -4,3 -6,4 -3,1 -7,2 -13,3l-8 1 3 24 -13 2zm5 -55l3 18 7 -1c5,-1 8,-2 10,-2 2,-1 3,-2 4,-4 1,-2 1,-3 1,-5 0,-2 -1,-4 -3,-5 -2,-1 -3,-2 -6,-2 -2,0 -5,0 -9,1l-6 1zm70 43m-7 -31c-2,-6 -3,-12 -3,-17 0,-4 1,-7 3,-10 2,-3 4,-6 6,-8 3,-3 7,-5 12,-7 9,-3 17,-3 24,1 7,4 13,11 16,20 3,10 3,18 0,26 -3,7 -10,13 -19,16 -9,3 -17,3 -24,-1 -7,-4 -13,-10 -16,-20zm13 -5c2,7 6,12 10,14 4,2 9,3 14,1 5,-2 8,-5 10,-9 2,-5 2,-10 -1,-18 -2,-7 -6,-12 -10,-14 -4,-2 -9,-3 -14,-1 -5,2 -9,5 -10,9 -2,5 -2,10 1,17zm81 6m-24 -60l45 -24 30 57 -12 6 -25 -47 -22 12 25 47 -11 6 -30 -57zm101 19m5 -4l-38 -52 17 -12c6,-5 11,-7 13,-8 4,-1 7,-2 11,0 4,1 7,4 10,8 2,3 4,6 4,9 0,3 0,6 -1,8 -1,3 -2,5 -4,6 -2,2 -6,5 -10,9l-7 5 14 20 -11 8zm-21 -51l11 15 6 -4c4,-3 7,-5 8,-7 1,-2 1,-3 1,-5 0,-2 -1,-3 -2,-5 -1,-2 -3,-3 -5,-3 -2,0 -4,0 -6,1 -1,1 -4,2 -8,5l-5 4zm82 6m-19 -26c-5,-5 -8,-9 -9,-14 -1,-3 -2,-7 -2,-11 0,-4 1,-7 2,-10 2,-4 4,-8 8,-11 7,-7 14,-10 23,-9 8,0 16,4 23,12 7,7 11,15 11,23 0,8 -3,16 -10,22 -7,7 -14,10 -23,10 -8,0 -16,-4 -23,-11zm9 -10c5,5 10,8 15,8 5,0 9,-1 13,-5 4,-4 5,-8 5,-13 0,-5 -3,-10 -8,-16 -5,-5 -10,-8 -15,-9 -5,0 -9,1 -13,5 -4,4 -6,8 -5,13 0,5 3,10 8,15zm75 -30m4 -5l-51 -40 29 -38 9 7 -21 27 11 9 20 -26 9 7 -20 26 14 11 22 -28 9 7 -30 39zm45 -61m-53 -37l6 -11 24 13c1,-3 1,-5 1,-6 -1,-1 -3,-4 -6,-9 -5,-6 -7,-10 -7,-13 0,-3 1,-7 4,-13 0,0 0,-1 1,-2l8 5 -1 2c-1,2 -2,4 -2,6 0,1 0,3 1,4 1,1 3,4 6,7 2,2 3,3 4,5 1,2 1,4 1,6 2,-2 5,-3 8,-4 3,0 7,-1 12,0l20 1 -7 13 -18 -1c0,0 -1,0 -2,0 0,0 -1,0 -3,0 -4,0 -6,0 -7,1 -1,1 -2,2 -3,4l25 14 -6 11 -56 -31zm90 -33m8 -20l-50 -19 -7 18 -10 -4 18 -48 10 4 -7 18 50 19 -5 12z"/>
 </g>
</svg>
